<svg viewBox="-10 -10 621 405" xmlns="http://www.w3.org/2000/svg">
  <!-- Background -->
  <rect x="-10" y="-10" width="621" height="405" fill="#9da6b0"/>

  <!-- V arrow + SAUNA letters — all dark, combined with evenodd for correct holes -->
  <path fill="#1c1a1b" fill-rule="evenodd" d="
    M 30,18 L 302,369 L 575,19 L 554,18 L 302,369 L 51,18 Z

    M 126,18 L 126,67 L 163,67 L 166,69 L 166,82 L 164,84 L 126,84 L 126,99 L 127,100 L 189,100 L 189,52 L 188,51 L 150,51 L 149,50 L 149,36 L 151,34 L 189,34 L 189,18 Z

    M 198,18 L 198,99 L 199,100 L 220,100 L 221,99 L 221,81 L 223,78 L 237,78 L 239,80 L 239,99 L 240,100 L 260,100 L 261,99 L 261,18 Z
    M 224,34 L 236,34 L 239,37 L 239,59 L 238,60 L 238,61 L 237,62 L 223,62 L 222,61 L 222,60 L 221,59 L 221,37 Z

    M 271,18 L 271,99 L 272,100 L 333,100 L 334,99 L 334,18 L 311,18 L 311,82 L 309,84 L 296,84 L 294,82 L 294,18 Z

    M 344,18 L 344,99 L 345,100 L 365,100 L 366,99 L 366,36 L 368,34 L 383,34 L 384,35 L 384,99 L 385,100 L 406,100 L 407,99 L 407,18 Z

    M 416,18 L 416,99 L 417,100 L 438,100 L 439,99 L 439,80 L 441,78 L 455,78 L 456,79 L 456,98 L 457,100 L 478,100 L 479,99 L 479,18 Z
    M 441,34 L 454,34 L 456,36 L 456,60 L 454,62 L 441,62 L 439,60 L 439,36 Z
  "/>
</svg>
